<?xml version="1.0" encoding="utf-8" standalone="no"?>
<!DOCTYPE svg PUBLIC "-//W3C//DTD SVG 1.1//EN"
  "http://www.w3.org/Graphics/SVG/1.1/DTD/svg11.dtd">
<svg height="288pt" version="1.1" viewBox="0 0 432 288" width="432pt" xmlns="http://www.w3.org/2000/svg" xmlns:xlink="http://www.w3.org/1999/xlink">
 <metadata>
  <rdf:RDF xmlns:cc="http://creativecommons.org/ns#" xmlns:dc="http://purl.org/dc/elements/1.1/" xmlns:rdf="http://www.w3.org/1999/02/22-rdf-syntax-ns#">
   <cc:Work>
    <dc:type rdf:resource="http://purl.org/dc/dcmitype/StillImage"/>
    <dc:date>2023-06-23T09:18:06.930666</dc:date>
    <dc:format>image/svg+xml</dc:format>
    <dc:creator>
     <cc:Agent>
      <dc:title>Matplotlib v3.4.3, https://matplotlib.org/</dc:title>
     </cc:Agent>
    </dc:creator>
   </cc:Work>
  </rdf:RDF>
 </metadata>
 <defs>
  <style type="text/css">*{stroke-linecap:butt;stroke-linejoin:round;}</style>
 </defs>
 <g id="figure_1">
  <g id="patch_1">
   <path d="M 0 288 
L 432 288 
L 432 0 
L 0 0 
z
" style="fill:none;"/>
  </g>
  <g id="axes_1">
   <g id="patch_2">
    <path d="M 112.68 252 
L 330.12 252 
L 330.12 34.56 
L 112.68 34.56 
z
" style="fill:#ffffff;"/>
   </g>
   <g id="patch_3">
    <path clip-path="url(#pc869aaa34c)" d="M 308.376 143.28 
C 308.376 139.483602 308.127438 135.691273 307.631908 131.927354 
C 307.136379 128.163434 306.394945 124.435994 305.412365 120.768955 
L 242.403091 137.652239 
C 242.648736 138.568998 242.834095 139.500859 242.957977 140.441838 
C 243.081859 141.382818 243.144 142.3309 243.144 143.28 
L 308.376 143.28 
z
" style="fill:#301437;stroke:#000000;stroke-linejoin:miter;"/>
   </g>
   <g id="patch_4">
    <path clip-path="url(#pc869aaa34c)" d="M 305.412365 120.768955 
C 304.429785 117.101916 303.208165 113.50314 301.755346 109.995726 
C 300.302528 106.488311 298.621625 103.079777 296.723426 99.792 
L 240.230856 132.408 
C 240.705406 133.229944 241.125632 134.082078 241.488837 134.958931 
C 241.852041 135.835785 242.157446 136.735479 242.403091 137.652239 
L 305.412365 120.768955 
z
" style="fill:#3d114e;stroke:#000000;stroke-linejoin:miter;"/>
   </g>
   <g id="patch_5">
    <path clip-path="url(#pc869aaa34c)" d="M 296.723426 99.792 
C 294.825226 96.504223 292.713801 93.344251 290.4027 90.332366 
C 288.091599 87.320481 285.585778 84.463139 282.901319 81.778681 
L 236.77533 127.90467 
C 237.446445 128.575785 238.0729 129.29012 238.650675 130.043091 
C 239.22845 130.796063 239.756307 131.586056 240.230856 132.408 
L 296.723426 99.792 
z
" style="fill:#4f1972;stroke:#000000;stroke-linejoin:miter;"/>
   </g>
   <g id="patch_6">
    <path clip-path="url(#pc869aaa34c)" d="M 282.901319 81.778681 
C 280.216861 79.094222 277.359519 76.588401 274.347634 74.2773 
C 271.335749 71.966199 268.175777 69.854774 264.888 67.956574 
L 232.272 124.449144 
C 233.093944 124.923693 233.883937 125.45155 234.636909 126.029325 
C 235.38988 126.6071 236.104215 127.233555 236.77533 127.90467 
L 282.901319 81.778681 
z
" style="fill:#5a2e93;stroke:#000000;stroke-linejoin:miter;"/>
   </g>
   <g id="patch_7">
    <path clip-path="url(#pc869aaa34c)" d="M 264.888 67.956574 
C 261.600223 66.058375 258.191689 64.377472 254.684274 62.924654 
C 251.17686 61.471835 247.578084 60.250215 243.911045 59.267635 
L 227.027761 122.276909 
C 227.944521 122.522554 228.844215 122.827959 229.721069 123.191163 
C 230.597922 123.554368 231.450056 123.974594 232.272 124.449144 
L 264.888 67.956574 
z
" style="fill:#5e48a8;stroke:#000000;stroke-linejoin:miter;"/>
   </g>
   <g id="patch_8">
    <path clip-path="url(#pc869aaa34c)" d="M 243.911045 59.267635 
C 240.244006 58.285055 236.516566 57.543621 232.752646 57.048092 
C 228.988727 56.552562 225.196398 56.304 221.4 56.304 
L 221.4 121.536 
C 222.3491 121.536 223.297182 121.598141 224.238162 121.722023 
C 225.179141 121.845905 226.111002 122.031264 227.027761 122.276909 
L 243.911045 59.267635 
z
" style="fill:#5f62b4;stroke:#000000;stroke-linejoin:miter;"/>
   </g>
   <g id="patch_9">
    <path clip-path="url(#pc869aaa34c)" d="M 221.4 56.304 
C 217.603602 56.304 213.811273 56.552562 210.047354 57.048092 
C 206.283434 57.543621 202.555994 58.285055 198.888955 59.267635 
L 215.772239 122.276909 
C 216.688998 122.031264 217.620859 121.845905 218.561838 121.722023 
C 219.502818 121.598141 220.4509 121.536 221.4 121.536 
L 221.4 56.304 
z
" style="fill:#647cbc;stroke:#000000;stroke-linejoin:miter;"/>
   </g>
   <g id="patch_10">
    <path clip-path="url(#pc869aaa34c)" d="M 198.888955 59.267635 
C 195.221916 60.250215 191.62314 61.471835 188.115726 62.924654 
C 184.608311 64.377472 181.199777 66.058375 177.912 67.956574 
L 210.528 124.449144 
C 211.349944 123.974594 212.202078 123.554368 213.078931 123.191163 
C 213.955785 122.827959 214.855479 122.522554 215.772239 122.276909 
L 198.888955 59.267635 
z
" style="fill:#6f93c0;stroke:#000000;stroke-linejoin:miter;"/>
   </g>
   <g id="patch_11">
    <path clip-path="url(#pc869aaa34c)" d="M 177.912 67.956574 
C 174.624223 69.854774 171.464251 71.966199 168.452366 74.2773 
C 165.440481 76.588401 162.583139 79.094222 159.898681 81.778681 
L 206.02467 127.90467 
C 206.695785 127.233555 207.41012 126.6071 208.163091 126.029325 
C 208.916063 125.45155 209.706056 124.923693 210.528 124.449144 
L 177.912 67.956574 
z
" style="fill:#84a8c4;stroke:#000000;stroke-linejoin:miter;"/>
   </g>
   <g id="patch_12">
    <path clip-path="url(#pc869aaa34c)" d="M 159.898681 81.778681 
C 157.214222 84.463139 154.708401 87.320481 152.3973 90.332366 
C 150.086199 93.344251 147.974774 96.504223 146.076574 99.792 
L 202.569144 132.408 
C 203.043693 131.586056 203.57155 130.796063 204.149325 130.043091 
C 204.7271 129.29012 205.353555 128.575785 206.02467 127.90467 
L 159.898681 81.778681 
z
" style="fill:#a0bcc9;stroke:#000000;stroke-linejoin:miter;"/>
   </g>
   <g id="patch_13">
    <path clip-path="url(#pc869aaa34c)" d="M 146.076574 99.792 
C 144.178375 103.079777 142.497472 106.488311 141.044654 109.995726 
C 139.591835 113.50314 138.370215 117.101916 137.387635 120.768955 
L 200.396909 137.652239 
C 200.642554 136.735479 200.947959 135.835785 201.311163 134.958931 
C 201.674368 134.082078 202.094594 133.229944 202.569144 132.408 
L 146.076574 99.792 
z
" style="fill:#c1cdd3;stroke:#000000;stroke-linejoin:miter;"/>
   </g>
   <g id="patch_14">
    <path clip-path="url(#pc869aaa34c)" d="M 137.387635 120.768955 
C 136.405055 124.435994 135.663621 128.163434 135.168092 131.927354 
C 134.672562 135.691273 134.424 139.483602 134.424 143.28 
L 199.656 143.28 
C 199.656 142.3309 199.718141 141.382818 199.842023 140.441838 
C 199.965905 139.500859 200.151264 138.568998 200.396909 137.652239 
L 137.387635 120.768955 
z
" style="fill:#dbd8df;stroke:#000000;stroke-linejoin:miter;"/>
   </g>
   <g id="patch_15">
    <path clip-path="url(#pc869aaa34c)" d="M 134.424 143.28 
C 134.424 147.076398 134.672562 150.868727 135.168092 154.632646 
C 135.663621 158.396566 136.405055 162.124006 137.387635 165.791045 
L 200.396909 148.907761 
C 200.151264 147.991002 199.965905 147.059141 199.842023 146.118162 
C 199.718141 145.177182 199.656 144.2291 199.656 143.28 
L 134.424 143.28 
z
" style="fill:#e0d6da;stroke:#000000;stroke-linejoin:miter;"/>
   </g>
   <g id="patch_16">
    <path clip-path="url(#pc869aaa34c)" d="M 137.387635 165.791045 
C 138.370215 169.458084 139.591835 173.05686 141.044654 176.564274 
C 142.497472 180.071689 144.178375 183.480223 146.076574 186.768 
L 202.569144 154.152 
C 202.094594 153.330056 201.674368 152.477922 201.311163 151.601069 
C 200.947959 150.724215 200.642554 149.824521 200.396909 148.907761 
L 137.387635 165.791045 
z
" style="fill:#d8c5bb;stroke:#000000;stroke-linejoin:miter;"/>
   </g>
   <g id="patch_17">
    <path clip-path="url(#pc869aaa34c)" d="M 146.076574 186.768 
C 147.974774 190.055777 150.086199 193.215749 152.3973 196.227634 
C 154.708401 199.239519 157.214222 202.096861 159.898681 204.781319 
L 206.02467 158.65533 
C 205.353555 157.984215 204.7271 157.26988 204.149325 156.516909 
C 203.57155 155.763937 203.043693 154.973944 202.569144 154.152 
L 146.076574 186.768 
z
" style="fill:#cfad96;stroke:#000000;stroke-linejoin:miter;"/>
   </g>
   <g id="patch_18">
    <path clip-path="url(#pc869aaa34c)" d="M 159.898681 204.781319 
C 162.583139 207.465778 165.440481 209.971599 168.452366 212.2827 
C 171.464251 214.593801 174.624223 216.705226 177.912 218.603426 
L 210.528 162.110856 
C 209.706056 161.636307 208.916063 161.10845 208.163091 160.530675 
C 207.41012 159.9529 206.695785 159.326445 206.02467 158.65533 
L 159.898681 204.781319 
z
" style="fill:#c89275;stroke:#000000;stroke-linejoin:miter;"/>
   </g>
   <g id="patch_19">
    <path clip-path="url(#pc869aaa34c)" d="M 177.912 218.603426 
C 181.199777 220.501625 184.608311 222.182528 188.115726 223.635346 
C 191.62314 225.088165 195.221916 226.309785 198.888955 227.292365 
L 215.772239 164.283091 
C 214.855479 164.037446 213.955785 163.732041 213.078931 163.368837 
C 212.202078 163.005632 211.349944 162.585406 210.528 162.110856 
L 177.912 218.603426 
z
" style="fill:#c1775f;stroke:#000000;stroke-linejoin:miter;"/>
   </g>
   <g id="patch_20">
    <path clip-path="url(#pc869aaa34c)" d="M 198.888955 227.292365 
C 202.555994 228.274945 206.283434 229.016379 210.047354 229.511908 
C 213.811273 230.007438 217.603602 230.256 221.4 230.256 
L 221.4 165.024 
C 220.4509 165.024 219.502818 164.961859 218.561838 164.837977 
C 217.620859 164.714095 216.688998 164.528736 215.772239 164.283091 
L 198.888955 227.292365 
z
" style="fill:#b65d54;stroke:#000000;stroke-linejoin:miter;"/>
   </g>
   <g id="patch_21">
    <path clip-path="url(#pc869aaa34c)" d="M 221.4 230.256 
C 225.196398 230.256 228.988727 230.007438 232.752646 229.511908 
C 236.516566 229.016379 240.244006 228.274945 243.911045 227.292365 
L 227.027761 164.283091 
C 226.111002 164.528736 225.179141 164.714095 224.238162 164.837977 
C 223.297182 164.961859 222.3491 165.024 221.4 165.024 
L 221.4 230.256 
z
" style="fill:#a54450;stroke:#000000;stroke-linejoin:miter;"/>
   </g>
   <g id="patch_22">
    <path clip-path="url(#pc869aaa34c)" d="M 243.911045 227.292365 
C 247.578084 226.309785 251.17686 225.088165 254.684274 223.635346 
C 258.191689 222.182528 261.600223 220.501625 264.888 218.603426 
L 232.272 162.110856 
C 231.450056 162.585406 230.597922 163.005632 229.721069 163.368837 
C 228.844215 163.732041 227.944521 164.037446 227.027761 164.283091 
L 243.911045 227.292365 
z
" style="fill:#912f50;stroke:#000000;stroke-linejoin:miter;"/>
   </g>
   <g id="patch_23">
    <path clip-path="url(#pc869aaa34c)" d="M 264.888 218.603426 
C 268.175777 216.705226 271.335749 214.593801 274.347634 212.2827 
C 277.359519 209.971599 280.216861 207.465778 282.901319 204.781319 
L 236.77533 158.65533 
C 236.104215 159.326445 235.38988 159.9529 234.636909 160.530675 
C 233.883937 161.10845 233.093944 161.636307 232.272 162.110856 
L 264.888 218.603426 
z
" style="fill:#781f4f;stroke:#000000;stroke-linejoin:miter;"/>
   </g>
   <g id="patch_24">
    <path clip-path="url(#pc869aaa34c)" d="M 282.901319 204.781319 
C 285.585778 202.096861 288.091599 199.239519 290.4027 196.227634 
C 292.713801 193.215749 294.825226 190.055777 296.723426 186.768 
L 240.230856 154.152 
C 239.756307 154.973944 239.22845 155.763937 238.650675 156.516909 
C 238.0729 157.26988 237.446445 157.984215 236.77533 158.65533 
L 282.901319 204.781319 
z
" style="fill:#5b1648;stroke:#000000;stroke-linejoin:miter;"/>
   </g>
   <g id="patch_25">
    <path clip-path="url(#pc869aaa34c)" d="M 296.723426 186.768 
C 298.621625 183.480223 300.302528 180.071689 301.755346 176.564274 
C 303.208165 173.05686 304.429785 169.458084 305.412365 165.791045 
L 242.403091 148.907761 
C 242.157446 149.824521 241.852041 150.724215 241.488837 151.601069 
C 241.125632 152.477922 240.705406 153.330056 240.230856 154.152 
L 296.723426 186.768 
z
" style="fill:#40123d;stroke:#000000;stroke-linejoin:miter;"/>
   </g>
   <g id="patch_26">
    <path clip-path="url(#pc869aaa34c)" d="M 305.412365 165.791045 
C 306.394945 162.124006 307.136379 158.396566 307.631908 154.632646 
C 308.127438 150.868727 308.376 147.076398 308.376 143.28 
L 243.144 143.28 
C 243.144 144.2291 243.081859 145.177182 242.957977 146.118162 
C 242.834095 147.059141 242.648736 147.991002 242.403091 148.907761 
L 305.412365 165.791045 
z
" style="fill:#2f1436;stroke:#000000;stroke-linejoin:miter;"/>
   </g>
   <g id="matplotlib.axis_1"/>
   <g id="matplotlib.axis_2"/>
   <g id="text_1">
    <!-- 0 -->
    <g transform="translate(324.41801 133.228255)scale(0.15 -0.15)">
     <defs>
      <path d="M 2034 4250 
Q 1547 4250 1301 3770 
Q 1056 3291 1056 2328 
Q 1056 1369 1301 889 
Q 1547 409 2034 409 
Q 2525 409 2770 889 
Q 3016 1369 3016 2328 
Q 3016 3291 2770 3770 
Q 2525 4250 2034 4250 
z
M 2034 4750 
Q 2819 4750 3233 4129 
Q 3647 3509 3647 2328 
Q 3647 1150 3233 529 
Q 2819 -91 2034 -91 
Q 1250 -91 836 529 
Q 422 1150 422 2328 
Q 422 3509 836 4129 
Q 1250 4750 2034 4750 
z
" id="DejaVuSans-30" transform="scale(0.015625)"/>
     </defs>
     <use xlink:href="#DejaVuSans-30"/>
    </g>
   </g>
   <g id="text_2">
    <!-- 1 -->
    <g transform="translate(317.072308 105.81372)scale(0.15 -0.15)">
     <defs>
      <path d="M 794 531 
L 1825 531 
L 1825 4091 
L 703 3866 
L 703 4441 
L 1819 4666 
L 2450 4666 
L 2450 531 
L 3481 531 
L 3481 0 
L 794 0 
L 794 531 
z
" id="DejaVuSans-31" transform="scale(0.015625)"/>
     </defs>
     <use xlink:href="#DejaVuSans-31"/>
    </g>
   </g>
   <g id="text_3">
    <!-- 2 -->
    <g transform="translate(302.8815 81.23452)scale(0.15 -0.15)">
     <defs>
      <path d="M 1228 531 
L 3431 531 
L 3431 0 
L 469 0 
L 469 531 
Q 828 903 1448 1529 
Q 2069 2156 2228 2338 
Q 2531 2678 2651 2914 
Q 2772 3150 2772 3378 
Q 2772 3750 2511 3984 
Q 2250 4219 1831 4219 
Q 1534 4219 1204 4116 
Q 875 4013 500 3803 
L 500 4441 
Q 881 4594 1212 4672 
Q 1544 4750 1819 4750 
Q 2544 4750 2975 4387 
Q 3406 4025 3406 3419 
Q 3406 3131 3298 2873 
Q 3191 2616 2906 2266 
Q 2828 2175 2409 1742 
Q 1991 1309 1228 531 
z
" id="DejaVuSans-32" transform="scale(0.015625)"/>
     </defs>
     <use xlink:href="#DejaVuSans-32"/>
    </g>
   </g>
   <g id="text_4">
    <!-- 3 -->
    <g transform="translate(282.812668 61.165687)scale(0.15 -0.15)">
     <defs>
      <path d="M 2597 2516 
Q 3050 2419 3304 2112 
Q 3559 1806 3559 1356 
Q 3559 666 3084 287 
Q 2609 -91 1734 -91 
Q 1441 -91 1130 -33 
Q 819 25 488 141 
L 488 750 
Q 750 597 1062 519 
Q 1375 441 1716 441 
Q 2309 441 2620 675 
Q 2931 909 2931 1356 
Q 2931 1769 2642 2001 
Q 2353 2234 1838 2234 
L 1294 2234 
L 1294 2753 
L 1863 2753 
Q 2328 2753 2575 2939 
Q 2822 3125 2822 3475 
Q 2822 3834 2567 4026 
Q 2313 4219 1838 4219 
Q 1578 4219 1281 4162 
Q 984 4106 628 3988 
L 628 4550 
Q 988 4650 1302 4700 
Q 1616 4750 1894 4750 
Q 2613 4750 3031 4423 
Q 3450 4097 3450 3541 
Q 3450 3153 3228 2886 
Q 3006 2619 2597 2516 
z
" id="DejaVuSans-33" transform="scale(0.015625)"/>
     </defs>
     <use xlink:href="#DejaVuSans-33"/>
    </g>
   </g>
   <g id="text_5">
    <!-- 4 -->
    <g transform="translate(258.233468 46.97488)scale(0.15 -0.15)">
     <defs>
      <path d="M 2419 4116 
L 825 1625 
L 2419 1625 
L 2419 4116 
z
M 2253 4666 
L 3047 4666 
L 3047 1625 
L 3713 1625 
L 3713 1100 
L 3047 1100 
L 3047 0 
L 2419 0 
L 2419 1100 
L 313 1100 
L 313 1709 
L 2253 4666 
z
" id="DejaVuSans-34" transform="scale(0.015625)"/>
     </defs>
     <use xlink:href="#DejaVuSans-34"/>
    </g>
   </g>
   <g id="text_6">
    <!-- 5 -->
    <g transform="translate(230.818933 39.629177)scale(0.15 -0.15)">
     <defs>
      <path d="M 691 4666 
L 3169 4666 
L 3169 4134 
L 1269 4134 
L 1269 2991 
Q 1406 3038 1543 3061 
Q 1681 3084 1819 3084 
Q 2600 3084 3056 2656 
Q 3513 2228 3513 1497 
Q 3513 744 3044 326 
Q 2575 -91 1722 -91 
Q 1428 -91 1123 -41 
Q 819 9 494 109 
L 494 744 
Q 775 591 1075 516 
Q 1375 441 1709 441 
Q 2250 441 2565 725 
Q 2881 1009 2881 1497 
Q 2881 1984 2565 2268 
Q 2250 2553 1709 2553 
Q 1456 2553 1204 2497 
Q 953 2441 691 2322 
L 691 4666 
z
" id="DejaVuSans-35" transform="scale(0.015625)"/>
     </defs>
     <use xlink:href="#DejaVuSans-35"/>
    </g>
   </g>
   <g id="text_7">
    <!-- 6 -->
    <g transform="translate(202.437317 39.629177)scale(0.15 -0.15)">
     <defs>
      <path d="M 2113 2584 
Q 1688 2584 1439 2293 
Q 1191 2003 1191 1497 
Q 1191 994 1439 701 
Q 1688 409 2113 409 
Q 2538 409 2786 701 
Q 3034 994 3034 1497 
Q 3034 2003 2786 2293 
Q 2538 2584 2113 2584 
z
M 3366 4563 
L 3366 3988 
Q 3128 4100 2886 4159 
Q 2644 4219 2406 4219 
Q 1781 4219 1451 3797 
Q 1122 3375 1075 2522 
Q 1259 2794 1537 2939 
Q 1816 3084 2150 3084 
Q 2853 3084 3261 2657 
Q 3669 2231 3669 1497 
Q 3669 778 3244 343 
Q 2819 -91 2113 -91 
Q 1303 -91 875 529 
Q 447 1150 447 2328 
Q 447 3434 972 4092 
Q 1497 4750 2381 4750 
Q 2619 4750 2861 4703 
Q 3103 4656 3366 4563 
z
" id="DejaVuSans-36" transform="scale(0.015625)"/>
     </defs>
     <use xlink:href="#DejaVuSans-36"/>
    </g>
   </g>
   <g id="text_8">
    <!-- 7 -->
    <g transform="translate(175.022782 46.97488)scale(0.15 -0.15)">
     <defs>
      <path d="M 525 4666 
L 3525 4666 
L 3525 4397 
L 1831 0 
L 1172 0 
L 2766 4134 
L 525 4134 
L 525 4666 
z
" id="DejaVuSans-37" transform="scale(0.015625)"/>
     </defs>
     <use xlink:href="#DejaVuSans-37"/>
    </g>
   </g>
   <g id="text_9">
    <!-- 8 -->
    <g transform="translate(150.443582 61.165687)scale(0.15 -0.15)">
     <defs>
      <path d="M 2034 2216 
Q 1584 2216 1326 1975 
Q 1069 1734 1069 1313 
Q 1069 891 1326 650 
Q 1584 409 2034 409 
Q 2484 409 2743 651 
Q 3003 894 3003 1313 
Q 3003 1734 2745 1975 
Q 2488 2216 2034 2216 
z
M 1403 2484 
Q 997 2584 770 2862 
Q 544 3141 544 3541 
Q 544 4100 942 4425 
Q 1341 4750 2034 4750 
Q 2731 4750 3128 4425 
Q 3525 4100 3525 3541 
Q 3525 3141 3298 2862 
Q 3072 2584 2669 2484 
Q 3125 2378 3379 2068 
Q 3634 1759 3634 1313 
Q 3634 634 3220 271 
Q 2806 -91 2034 -91 
Q 1263 -91 848 271 
Q 434 634 434 1313 
Q 434 1759 690 2068 
Q 947 2378 1403 2484 
z
M 1172 3481 
Q 1172 3119 1398 2916 
Q 1625 2713 2034 2713 
Q 2441 2713 2670 2916 
Q 2900 3119 2900 3481 
Q 2900 3844 2670 4047 
Q 2441 4250 2034 4250 
Q 1625 4250 1398 4047 
Q 1172 3844 1172 3481 
z
" id="DejaVuSans-38" transform="scale(0.015625)"/>
     </defs>
     <use xlink:href="#DejaVuSans-38"/>
    </g>
   </g>
   <g id="text_10">
    <!-- 9 -->
    <g transform="translate(130.37475 81.23452)scale(0.15 -0.15)">
     <defs>
      <path d="M 703 97 
L 703 672 
Q 941 559 1184 500 
Q 1428 441 1663 441 
Q 2288 441 2617 861 
Q 2947 1281 2994 2138 
Q 2813 1869 2534 1725 
Q 2256 1581 1919 1581 
Q 1219 1581 811 2004 
Q 403 2428 403 3163 
Q 403 3881 828 4315 
Q 1253 4750 1959 4750 
Q 2769 4750 3195 4129 
Q 3622 3509 3622 2328 
Q 3622 1225 3098 567 
Q 2575 -91 1691 -91 
Q 1453 -91 1209 -44 
Q 966 3 703 97 
z
M 1959 2075 
Q 2384 2075 2632 2365 
Q 2881 2656 2881 3163 
Q 2881 3666 2632 3958 
Q 2384 4250 1959 4250 
Q 1534 4250 1286 3958 
Q 1038 3666 1038 3163 
Q 1038 2656 1286 2365 
Q 1534 2075 1959 2075 
z
" id="DejaVuSans-39" transform="scale(0.015625)"/>
     </defs>
     <use xlink:href="#DejaVuSans-39"/>
    </g>
   </g>
   <g id="text_11">
    <!-- 10 -->
    <g transform="translate(111.412067 105.81372)scale(0.15 -0.15)">
     <use xlink:href="#DejaVuSans-31"/>
     <use x="63.623047" xlink:href="#DejaVuSans-30"/>
    </g>
   </g>
   <g id="text_12">
    <!-- 11 -->
    <g transform="translate(104.066365 133.228255)scale(0.15 -0.15)">
     <use xlink:href="#DejaVuSans-31"/>
     <use x="63.623047" xlink:href="#DejaVuSans-31"/>
    </g>
   </g>
   <g id="text_13">
    <!-- 12 -->
    <g transform="translate(104.066365 161.60987)scale(0.15 -0.15)">
     <use xlink:href="#DejaVuSans-31"/>
     <use x="63.623047" xlink:href="#DejaVuSans-32"/>
    </g>
   </g>
   <g id="text_14">
    <!-- 13 -->
    <g transform="translate(111.412067 189.024405)scale(0.15 -0.15)">
     <use xlink:href="#DejaVuSans-31"/>
     <use x="63.623047" xlink:href="#DejaVuSans-33"/>
    </g>
   </g>
   <g id="text_15">
    <!-- 14 -->
    <g transform="translate(125.602875 213.603605)scale(0.15 -0.15)">
     <use xlink:href="#DejaVuSans-31"/>
     <use x="63.623047" xlink:href="#DejaVuSans-34"/>
    </g>
   </g>
   <g id="text_16">
    <!-- 15 -->
    <g transform="translate(145.671707 233.672438)scale(0.15 -0.15)">
     <use xlink:href="#DejaVuSans-31"/>
     <use x="63.623047" xlink:href="#DejaVuSans-35"/>
    </g>
   </g>
   <g id="text_17">
    <!-- 16 -->
    <g transform="translate(170.250907 247.863245)scale(0.15 -0.15)">
     <use xlink:href="#DejaVuSans-31"/>
     <use x="63.623047" xlink:href="#DejaVuSans-36"/>
    </g>
   </g>
   <g id="text_18">
    <!-- 17 -->
    <g transform="translate(197.665442 255.208948)scale(0.15 -0.15)">
     <use xlink:href="#DejaVuSans-31"/>
     <use x="63.623047" xlink:href="#DejaVuSans-37"/>
    </g>
   </g>
   <g id="text_19">
    <!-- 18 -->
    <g transform="translate(226.047058 255.208948)scale(0.15 -0.15)">
     <use xlink:href="#DejaVuSans-31"/>
     <use x="63.623047" xlink:href="#DejaVuSans-38"/>
    </g>
   </g>
   <g id="text_20">
    <!-- 19 -->
    <g transform="translate(253.461593 247.863245)scale(0.15 -0.15)">
     <use xlink:href="#DejaVuSans-31"/>
     <use x="63.623047" xlink:href="#DejaVuSans-39"/>
    </g>
   </g>
   <g id="text_21">
    <!-- 20 -->
    <g transform="translate(278.040793 233.672438)scale(0.15 -0.15)">
     <use xlink:href="#DejaVuSans-32"/>
     <use x="63.623047" xlink:href="#DejaVuSans-30"/>
    </g>
   </g>
   <g id="text_22">
    <!-- 21 -->
    <g transform="translate(298.109625 213.603605)scale(0.15 -0.15)">
     <use xlink:href="#DejaVuSans-32"/>
     <use x="63.623047" xlink:href="#DejaVuSans-31"/>
    </g>
   </g>
   <g id="text_23">
    <!-- 22 -->
    <g transform="translate(312.300433 189.024405)scale(0.15 -0.15)">
     <use xlink:href="#DejaVuSans-32"/>
     <use x="63.623047" xlink:href="#DejaVuSans-32"/>
    </g>
   </g>
   <g id="text_24">
    <!-- 23 -->
    <g transform="translate(319.646135 161.60987)scale(0.15 -0.15)">
     <use xlink:href="#DejaVuSans-32"/>
     <use x="63.623047" xlink:href="#DejaVuSans-33"/>
    </g>
   </g>
   <g id="text_25">
    <!-- Hour of Day (UTC) -->
    <g transform="translate(121.703906 4.56)scale(0.22 -0.22)">
     <defs>
      <path d="M 628 4666 
L 1259 4666 
L 1259 2753 
L 3553 2753 
L 3553 4666 
L 4184 4666 
L 4184 0 
L 3553 0 
L 3553 2222 
L 1259 2222 
L 1259 0 
L 628 0 
L 628 4666 
z
" id="DejaVuSans-48" transform="scale(0.015625)"/>
      <path d="M 1959 3097 
Q 1497 3097 1228 2736 
Q 959 2375 959 1747 
Q 959 1119 1226 758 
Q 1494 397 1959 397 
Q 2419 397 2687 759 
Q 2956 1122 2956 1747 
Q 2956 2369 2687 2733 
Q 2419 3097 1959 3097 
z
M 1959 3584 
Q 2709 3584 3137 3096 
Q 3566 2609 3566 1747 
Q 3566 888 3137 398 
Q 2709 -91 1959 -91 
Q 1206 -91 779 398 
Q 353 888 353 1747 
Q 353 2609 779 3096 
Q 1206 3584 1959 3584 
z
" id="DejaVuSans-6f" transform="scale(0.015625)"/>
      <path d="M 544 1381 
L 544 3500 
L 1119 3500 
L 1119 1403 
Q 1119 906 1312 657 
Q 1506 409 1894 409 
Q 2359 409 2629 706 
Q 2900 1003 2900 1516 
L 2900 3500 
L 3475 3500 
L 3475 0 
L 2900 0 
L 2900 538 
Q 2691 219 2414 64 
Q 2138 -91 1772 -91 
Q 1169 -91 856 284 
Q 544 659 544 1381 
z
M 1991 3584 
L 1991 3584 
z
" id="DejaVuSans-75" transform="scale(0.015625)"/>
      <path d="M 2631 2963 
Q 2534 3019 2420 3045 
Q 2306 3072 2169 3072 
Q 1681 3072 1420 2755 
Q 1159 2438 1159 1844 
L 1159 0 
L 581 0 
L 581 3500 
L 1159 3500 
L 1159 2956 
Q 1341 3275 1631 3429 
Q 1922 3584 2338 3584 
Q 2397 3584 2469 3576 
Q 2541 3569 2628 3553 
L 2631 2963 
z
" id="DejaVuSans-72" transform="scale(0.015625)"/>
      <path id="DejaVuSans-20" transform="scale(0.015625)"/>
      <path d="M 2375 4863 
L 2375 4384 
L 1825 4384 
Q 1516 4384 1395 4259 
Q 1275 4134 1275 3809 
L 1275 3500 
L 2222 3500 
L 2222 3053 
L 1275 3053 
L 1275 0 
L 697 0 
L 697 3053 
L 147 3053 
L 147 3500 
L 697 3500 
L 697 3744 
Q 697 4328 969 4595 
Q 1241 4863 1831 4863 
L 2375 4863 
z
" id="DejaVuSans-66" transform="scale(0.015625)"/>
      <path d="M 1259 4147 
L 1259 519 
L 2022 519 
Q 2988 519 3436 956 
Q 3884 1394 3884 2338 
Q 3884 3275 3436 3711 
Q 2988 4147 2022 4147 
L 1259 4147 
z
M 628 4666 
L 1925 4666 
Q 3281 4666 3915 4102 
Q 4550 3538 4550 2338 
Q 4550 1131 3912 565 
Q 3275 0 1925 0 
L 628 0 
L 628 4666 
z
" id="DejaVuSans-44" transform="scale(0.015625)"/>
      <path d="M 2194 1759 
Q 1497 1759 1228 1600 
Q 959 1441 959 1056 
Q 959 750 1161 570 
Q 1363 391 1709 391 
Q 2188 391 2477 730 
Q 2766 1069 2766 1631 
L 2766 1759 
L 2194 1759 
z
M 3341 1997 
L 3341 0 
L 2766 0 
L 2766 531 
Q 2569 213 2275 61 
Q 1981 -91 1556 -91 
Q 1019 -91 701 211 
Q 384 513 384 1019 
Q 384 1609 779 1909 
Q 1175 2209 1959 2209 
L 2766 2209 
L 2766 2266 
Q 2766 2663 2505 2880 
Q 2244 3097 1772 3097 
Q 1472 3097 1187 3025 
Q 903 2953 641 2809 
L 641 3341 
Q 956 3463 1253 3523 
Q 1550 3584 1831 3584 
Q 2591 3584 2966 3190 
Q 3341 2797 3341 1997 
z
" id="DejaVuSans-61" transform="scale(0.015625)"/>
      <path d="M 2059 -325 
Q 1816 -950 1584 -1140 
Q 1353 -1331 966 -1331 
L 506 -1331 
L 506 -850 
L 844 -850 
Q 1081 -850 1212 -737 
Q 1344 -625 1503 -206 
L 1606 56 
L 191 3500 
L 800 3500 
L 1894 763 
L 2988 3500 
L 3597 3500 
L 2059 -325 
z
" id="DejaVuSans-79" transform="scale(0.015625)"/>
      <path d="M 1984 4856 
Q 1566 4138 1362 3434 
Q 1159 2731 1159 2009 
Q 1159 1288 1364 580 
Q 1569 -128 1984 -844 
L 1484 -844 
Q 1016 -109 783 600 
Q 550 1309 550 2009 
Q 550 2706 781 3412 
Q 1013 4119 1484 4856 
L 1984 4856 
z
" id="DejaVuSans-28" transform="scale(0.015625)"/>
      <path d="M 556 4666 
L 1191 4666 
L 1191 1831 
Q 1191 1081 1462 751 
Q 1734 422 2344 422 
Q 2950 422 3222 751 
Q 3494 1081 3494 1831 
L 3494 4666 
L 4128 4666 
L 4128 1753 
Q 4128 841 3676 375 
Q 3225 -91 2344 -91 
Q 1459 -91 1007 375 
Q 556 841 556 1753 
L 556 4666 
z
" id="DejaVuSans-55" transform="scale(0.015625)"/>
      <path d="M -19 4666 
L 3928 4666 
L 3928 4134 
L 2272 4134 
L 2272 0 
L 1638 0 
L 1638 4134 
L -19 4134 
L -19 4666 
z
" id="DejaVuSans-54" transform="scale(0.015625)"/>
      <path d="M 4122 4306 
L 4122 3641 
Q 3803 3938 3442 4084 
Q 3081 4231 2675 4231 
Q 1875 4231 1450 3742 
Q 1025 3253 1025 2328 
Q 1025 1406 1450 917 
Q 1875 428 2675 428 
Q 3081 428 3442 575 
Q 3803 722 4122 1019 
L 4122 359 
Q 3791 134 3420 21 
Q 3050 -91 2638 -91 
Q 1578 -91 968 557 
Q 359 1206 359 2328 
Q 359 3453 968 4101 
Q 1578 4750 2638 4750 
Q 3056 4750 3426 4639 
Q 3797 4528 4122 4306 
z
" id="DejaVuSans-43" transform="scale(0.015625)"/>
      <path d="M 513 4856 
L 1013 4856 
Q 1481 4119 1714 3412 
Q 1947 2706 1947 2009 
Q 1947 1309 1714 600 
Q 1481 -109 1013 -844 
L 513 -844 
Q 928 -128 1133 580 
Q 1338 1288 1338 2009 
Q 1338 2731 1133 3434 
Q 928 4138 513 4856 
z
" id="DejaVuSans-29" transform="scale(0.015625)"/>
     </defs>
     <use xlink:href="#DejaVuSans-48"/>
     <use x="75.195312" xlink:href="#DejaVuSans-6f"/>
     <use x="136.376953" xlink:href="#DejaVuSans-75"/>
     <use x="199.755859" xlink:href="#DejaVuSans-72"/>
     <use x="240.869141" xlink:href="#DejaVuSans-20"/>
     <use x="272.65625" xlink:href="#DejaVuSans-6f"/>
     <use x="333.837891" xlink:href="#DejaVuSans-66"/>
     <use x="369.042969" xlink:href="#DejaVuSans-20"/>
     <use x="400.830078" xlink:href="#DejaVuSans-44"/>
     <use x="477.832031" xlink:href="#DejaVuSans-61"/>
     <use x="539.111328" xlink:href="#DejaVuSans-79"/>
     <use x="598.291016" xlink:href="#DejaVuSans-20"/>
     <use x="630.078125" xlink:href="#DejaVuSans-28"/>
     <use x="669.091797" xlink:href="#DejaVuSans-55"/>
     <use x="742.285156" xlink:href="#DejaVuSans-54"/>
     <use x="797.494141" xlink:href="#DejaVuSans-43"/>
     <use x="867.318359" xlink:href="#DejaVuSans-29"/>
    </g>
   </g>
  </g>
 </g>
 <defs>
  <clipPath id="pc869aaa34c">
   <rect height="217.44" width="217.44" x="112.68" y="34.56"/>
  </clipPath>
 </defs>
</svg>
